# xmcd CD database file
#
# Track frame offsets:
#	150
#	20559
#	38024
#	55477
#	85359
#	101264
#	114062
#	132190
#	150672
#	174105
#	201124
#	225922
#	247866
#	266396
#	287126
#
# Disc length: 3940 seconds
#
# Revision: 1
# Processed by: cddbd v1.5.2PL0 Copyright (c) Steve Scherf et al.
# Submitted via: CDex 1.51
#
DISCID=b10f620f
DTITLE=Pistol Pete - 21st Century Bluesman
DYEAR=2003
DGENRE=Blues
TTITLE0=21st Century Bluesman
TTITLE1=Silver Screen
TTITLE2=Swing Me Baby
TTITLE3=Sum Of All Fears
TTITLE4=Love In The Third Degree
TTITLE5=Shake Your Booty
TTITLE6=24 Hour Blues
TTITLE7=You Make Me Feel Good
TTITLE8=G Funk
TTITLE9=As We Fly
TTITLE10=I Gave You Everything I Own
TTITLE11=Submariner
TTITLE12=San Antonio
TTITLE13=The Night The Guitar Died
TTITLE14=Daddy's Not Home
EXTD=YEAR: 2003
EXTT0=
EXTT1=
EXTT2=
EXTT3=
EXTT4=
EXTT5=
EXTT6=
EXTT7=
EXTT8=
EXTT9=
EXTT10=
EXTT11=
EXTT12=
EXTT13=
EXTT14=
PLAYORDER=
